<svg width="126" height="22" viewBox="0 0 126 22" fill="none" xmlns="http://www.w3.org/2000/svg">
<path d="M9.21875 18.3984C9.32812 18.3984 9.39844 18.4219 9.42969 18.4688C9.47656 18.5312 9.51562 18.5859 9.54688 18.6328C9.59375 18.6953 9.64062 18.7422 9.6875 18.7734C9.75 18.8047 9.82031 18.8125 9.89844 18.7969C10.0078 18.9062 10.0781 18.9922 10.1094 19.0547C10.1562 19.1172 10.2422 19.1562 10.3672 19.1719C10.4922 19.1875 10.625 19.2188 10.7656 19.2656C10.9062 19.3125 11.0391 19.3438 11.1641 19.3594C11.3359 19.375 11.4922 19.375 11.6328 19.3594C11.7734 19.3438 11.9375 19.3438 12.125 19.3594C12.25 19.375 12.4062 19.3906 12.5938 19.4062C12.7969 19.4219 12.9062 19.4922 12.9219 19.6172C12.875 19.6797 12.8359 19.7812 12.8047 19.9219C12.7266 19.9844 12.6641 20.0469 12.6172 20.1094C12.5703 20.1875 12.5 20.2422 12.4062 20.2734C12.25 20.4297 12.1484 20.5234 12.1016 20.5547C12.0703 20.5859 12.0234 20.6172 11.9609 20.6484C11.8047 20.7266 11.7109 20.7578 11.6797 20.7422C11.6484 20.7422 11.6172 20.75 11.5859 20.7656C11.4766 20.7812 11.3672 20.8047 11.2578 20.8359C11.1484 20.8828 11.0547 20.9141 10.9766 20.9297C10.8516 20.9453 10.7422 20.9531 10.6484 20.9531C10.5547 20.9531 10.4688 20.9688 10.3906 21C10.2656 20.9844 10.1328 20.9766 9.99219 20.9766C9.85156 20.9922 9.71875 21.0078 9.59375 21.0234C9.3125 21.0547 9.05469 21.0156 8.82031 20.9062C8.60156 20.7969 8.39844 20.6797 8.21094 20.5547C8.11719 20.4297 8.02344 20.3047 7.92969 20.1797C7.83594 20.0547 7.73438 19.9375 7.625 19.8281C7.53125 19.5781 7.42188 19.4141 7.29688 19.3359C7.21875 19.1953 7.15625 19.0781 7.10938 18.9844C7.07812 18.8906 7.02344 18.8125 6.94531 18.75C6.82031 18.4844 6.71094 18.25 6.61719 18.0469C6.52344 17.8594 6.39844 17.6953 6.24219 17.5547C6.11719 17.6172 6.03906 17.6719 6.00781 17.7188C5.74219 17.7969 5.52344 17.9219 5.35156 18.0938C5.17969 18.1406 5.01562 18.2109 4.85938 18.3047C4.71875 18.3984 4.5625 18.4766 4.39062 18.5391C4.21875 18.6641 4.03125 18.7422 3.82812 18.7734C3.64062 18.8203 3.44531 18.8281 3.24219 18.7969C3.03906 18.7656 2.84375 18.7109 2.65625 18.6328C2.46875 18.5547 2.3125 18.4688 2.1875 18.375C2.0625 18.1406 1.85156 17.9844 1.55469 17.9062C1.47656 17.7969 1.42188 17.6641 1.39062 17.5078C1.35938 17.3516 1.30469 17.2188 1.22656 17.1094C1.22656 16.9531 1.20312 16.8359 1.15625 16.7578C1.125 16.5234 1.08594 16.375 1.03906 16.3125C0.992188 16.25 0.953125 16.1797 0.921875 16.1016C0.875 16.0391 0.828125 15.9688 0.78125 15.8906C0.75 15.8125 0.71875 15.7344 0.6875 15.6562C0.609375 15.5312 0.546875 15.4609 0.5 15.4453C0.46875 15.4141 0.46875 15.375 0.5 15.3281C0.34375 14.7812 0.296875 14.1016 0.359375 13.2891C0.40625 13.0859 0.4375 12.9531 0.453125 12.8906C0.46875 12.8125 0.492188 12.7344 0.523438 12.6562C0.664062 12.0469 0.820312 11.4531 0.992188 10.875C1.17969 10.2812 1.375 9.71875 1.57812 9.1875C1.65625 8.98438 1.72656 8.78906 1.78906 8.60156C1.86719 8.39844 1.95312 8.21094 2.04688 8.03906C2.09375 7.96094 2.14062 7.875 2.1875 7.78125C2.23438 7.6875 2.28125 7.60156 2.32812 7.52344C2.375 7.42969 2.41406 7.34375 2.44531 7.26562C2.49219 7.1875 2.54688 7.10938 2.60938 7.03125C2.73438 6.79688 2.86719 6.59375 3.00781 6.42188C3.02344 6.35938 3.04688 6.3125 3.07812 6.28125C3.125 6.23438 3.15625 6.1875 3.17188 6.14062C3.20312 6.07812 3.21875 6.02344 3.21875 5.97656C3.23438 5.91406 3.25781 5.85156 3.28906 5.78906C3.33594 5.67969 3.39062 5.57812 3.45312 5.48438C3.53125 5.375 3.58594 5.25781 3.61719 5.13281C3.72656 5.03906 3.82031 4.95312 3.89844 4.875C3.97656 4.79688 4.04688 4.69531 4.10938 4.57031C4.45312 4.08594 4.82812 3.66406 5.23438 3.30469C5.64062 2.92969 6.07031 2.60156 6.52344 2.32031C6.66406 2.28906 6.78906 2.23438 6.89844 2.15625C7.00781 2.0625 7.10156 1.96875 7.17969 1.875C7.25781 1.85938 7.34375 1.80469 7.4375 1.71094C7.67188 1.55469 7.88281 1.44531 8.07031 1.38281C8.13281 1.35156 8.1875 1.32031 8.23438 1.28906C8.29688 1.25781 8.35156 1.21875 8.39844 1.17188C8.71094 1 9.04688 0.859375 9.40625 0.75C9.78125 0.625 10.1484 0.546875 10.5078 0.515625H10.7656C10.8906 0.578125 10.9609 0.609375 10.9766 0.609375C11.0078 0.59375 11.0391 0.59375 11.0703 0.609375C11.1328 0.625 11.1797 0.65625 11.2109 0.703125C11.2578 0.75 11.3203 0.773438 11.3984 0.773438C11.8047 1.25781 12.0859 1.76563 12.2422 2.29688C12.3984 2.82812 12.5234 3.38281 12.6172 3.96094C12.6016 4.33594 12.6094 4.72656 12.6406 5.13281C12.6719 5.53906 12.6641 5.9375 12.6172 6.32812C12.6016 6.46875 12.5781 6.60156 12.5469 6.72656C12.5312 6.83594 12.5156 6.95312 12.5 7.07812C12.4688 7.20312 12.4375 7.32812 12.4062 7.45312C12.3906 7.57812 12.3438 7.70312 12.2656 7.82812C12.2188 8.04688 12.1484 8.25781 12.0547 8.46094C11.9766 8.64844 11.8828 8.84375 11.7734 9.04688C11.7422 9.09375 11.7188 9.14062 11.7031 9.1875C11.7031 9.23438 11.6875 9.28906 11.6562 9.35156C11.6406 9.39844 11.6172 9.44531 11.5859 9.49219C11.5703 9.53906 11.5469 9.58594 11.5156 9.63281C11.4062 9.88281 11.3047 10.0859 11.2109 10.2422C11.1172 10.3828 11.0391 10.5469 10.9766 10.7344C10.8047 11.0312 10.6562 11.2969 10.5312 11.5312C10.4062 11.7656 10.2891 12.0078 10.1797 12.2578C10.1328 12.3672 10.0859 12.4766 10.0391 12.5859C9.99219 12.6797 9.95312 12.7812 9.92188 12.8906C9.85938 13 9.80469 13.1094 9.75781 13.2188C9.72656 13.3125 9.67969 13.3984 9.61719 13.4766C9.50781 13.6484 9.44531 13.7656 9.42969 13.8281C9.41406 13.875 9.39062 13.9297 9.35938 13.9922C9.26562 14.1172 9.20312 14.2109 9.17188 14.2734C9.14062 14.3359 9.10938 14.4062 9.07812 14.4844C9.04688 14.5469 9.01562 14.6094 8.98438 14.6719C8.89062 14.7656 8.80469 14.875 8.72656 15C8.66406 15.125 8.59375 15.2578 8.51562 15.3984C8.45312 15.5234 8.375 15.6406 8.28125 15.75C8.20312 15.8594 8.10156 15.9375 7.97656 15.9844C7.94531 16.0469 7.89844 16.0938 7.83594 16.125C7.78906 16.1562 7.76562 16.2109 7.76562 16.2891C7.76562 16.3516 7.79688 16.4141 7.85938 16.4766C7.92188 16.5391 7.96875 16.5938 8 16.6406C8.04688 16.7031 8.08594 16.7656 8.11719 16.8281C8.16406 16.875 8.21094 16.9141 8.25781 16.9453C8.36719 17.0859 8.46875 17.2344 8.5625 17.3906C8.67188 17.5312 8.78906 17.6641 8.91406 17.7891C8.94531 17.8984 8.98438 18 9.03125 18.0938C9.09375 18.1875 9.15625 18.2891 9.21875 18.3984ZM7.22656 14.4141C7.32031 14.3047 7.38281 14.2266 7.41406 14.1797C7.44531 14.1172 7.48438 14.0625 7.53125 14.0156C7.60938 13.9062 7.67969 13.8047 7.74219 13.7109C7.80469 13.6172 7.86719 13.5 7.92969 13.3594C7.96094 13.2812 8 13.2109 8.04688 13.1484C8.09375 13.0703 8.13281 12.9922 8.16406 12.9141C8.21094 12.8203 8.25 12.7188 8.28125 12.6094C8.3125 12.4844 8.35156 12.3672 8.39844 12.2578C8.52344 12.0391 8.60938 11.8672 8.65625 11.7422C8.70312 11.6172 8.76562 11.4922 8.84375 11.3672C8.84375 11.3203 8.85156 11.2812 8.86719 11.25C8.89844 11.2031 8.92969 11.1484 8.96094 11.0859C9.03906 10.9453 9.10156 10.7969 9.14844 10.6406C9.21094 10.4688 9.28125 10.3203 9.35938 10.1953C9.42188 10.0703 9.47656 9.96094 9.52344 9.86719C9.57031 9.75781 9.61719 9.65625 9.66406 9.5625C9.67969 9.4375 9.72656 9.33594 9.80469 9.25781C9.88281 9.02344 9.97656 8.78906 10.0859 8.55469C10.1953 8.32031 10.2891 8.08594 10.3672 7.85156C10.3984 7.75781 10.4219 7.66406 10.4375 7.57031C10.4688 7.46094 10.5 7.36719 10.5312 7.28906C10.5625 7.19531 10.5938 7.10938 10.625 7.03125C10.6719 6.9375 10.7109 6.84375 10.7422 6.75C10.8359 6.48438 10.9062 6.22656 10.9531 5.97656C11 5.71094 11.0547 5.42969 11.1172 5.13281C11.1797 4.86719 11.2266 4.60156 11.2578 4.33594C11.2891 4.07031 11.2656 3.8125 11.1875 3.5625C11.1562 3.45313 11.1172 3.35938 11.0703 3.28125C11.0391 3.1875 11.0078 3.10156 10.9766 3.02344C10.8203 2.82031 10.6641 2.71094 10.5078 2.69531C10.3672 2.67969 10.2344 2.67188 10.1094 2.67188C10.0312 2.64062 9.94531 2.625 9.85156 2.625C9.75781 2.625 9.66406 2.61719 9.57031 2.60156C9.49219 2.57031 9.40625 2.54687 9.3125 2.53125C9.23438 2.51563 9.15625 2.49219 9.07812 2.46094C8.92188 2.49219 8.80469 2.53906 8.72656 2.60156C8.66406 2.64844 8.58594 2.6875 8.49219 2.71875C8.42969 2.79688 8.35938 2.85938 8.28125 2.90625C8.20312 2.95312 8.125 3.00781 8.04688 3.07031C7.95312 3.11719 7.86719 3.17969 7.78906 3.25781C7.71094 3.33594 7.625 3.38281 7.53125 3.39844C7.21875 3.67969 6.89062 3.96094 6.54688 4.24219C6.21875 4.52344 5.89062 4.79688 5.5625 5.0625C5.48438 5.1875 5.39062 5.29688 5.28125 5.39062C5.17188 5.48438 5.10156 5.63281 5.07031 5.83594C4.99219 5.91406 4.92188 6.01562 4.85938 6.14062C4.8125 6.25 4.75 6.34375 4.67188 6.42188C4.57812 6.64062 4.46875 6.84375 4.34375 7.03125C4.21875 7.20312 4.10938 7.39844 4.01562 7.61719C3.96875 7.72656 3.92188 7.78906 3.875 7.80469C3.84375 7.82031 3.82812 7.85938 3.82812 7.92188C3.79688 7.95312 3.76562 7.99219 3.73438 8.03906C3.71875 8.07031 3.69531 8.10156 3.66406 8.13281C3.57031 8.35156 3.47656 8.57031 3.38281 8.78906C3.30469 8.99219 3.23438 9.21094 3.17188 9.44531C3.10938 9.66406 3.05469 9.88281 3.00781 10.1016C2.97656 10.3203 2.9375 10.5547 2.89062 10.8047C2.85938 10.9297 2.82031 11.0547 2.77344 11.1797C2.72656 11.3047 2.6875 11.4375 2.65625 11.5781C2.625 11.75 2.60156 11.9297 2.58594 12.1172C2.58594 12.2891 2.57031 12.4844 2.53906 12.7031C2.52344 12.9062 2.5 13.1172 2.46875 13.3359C2.4375 13.5547 2.42969 13.75 2.44531 13.9219C2.44531 14.0312 2.46094 14.1328 2.49219 14.2266C2.53906 14.3203 2.55469 14.4297 2.53906 14.5547C2.58594 14.6016 2.61719 14.6641 2.63281 14.7422C2.66406 14.8203 2.70312 14.8906 2.75 14.9531C2.95312 14.9062 3.16406 14.8594 3.38281 14.8125C3.60156 14.75 3.82031 14.7031 4.03906 14.6719C4.17969 14.6719 4.28125 14.6484 4.34375 14.6016C4.5 14.5703 4.60938 14.5625 4.67188 14.5781C4.75 14.5781 4.83594 14.5781 4.92969 14.5781C5.03906 14.5781 5.14062 14.5781 5.23438 14.5781C5.32812 14.5625 5.42969 14.5625 5.53906 14.5781C5.64844 14.6094 5.75781 14.6484 5.86719 14.6953C5.99219 14.7266 6.08594 14.7578 6.14844 14.7891C6.32031 14.8828 6.42188 14.9375 6.45312 14.9531C6.5 14.9688 6.54688 14.9922 6.59375 15.0234C6.71875 14.9297 6.82031 14.8281 6.89844 14.7188C6.99219 14.5938 7.10156 14.4922 7.22656 14.4141ZM4.76562 16.3125C4.59375 16.3438 4.42188 16.3906 4.25 16.4531C4.09375 16.5156 3.92188 16.5625 3.73438 16.5938C3.67188 16.6406 3.59375 16.6797 3.5 16.7109C3.40625 16.7266 3.34375 16.7656 3.3125 16.8281C3.45312 16.8594 3.5625 16.9062 3.64062 16.9688C3.73438 17.0312 3.85156 17.0781 3.99219 17.1094C4.19531 17.0469 4.36719 16.9766 4.50781 16.8984C4.66406 16.8203 4.82812 16.7578 5 16.7109C5.07812 16.6172 5.16406 16.5469 5.25781 16.5C5.36719 16.4375 5.4375 16.3438 5.46875 16.2188C5.34375 16.2344 5.22656 16.2578 5.11719 16.2891C5.00781 16.3047 4.89062 16.3125 4.76562 16.3125ZM17.9375 17.3203C17.8438 17.1172 17.8281 16.8125 17.8906 16.4062C17.9219 16.2344 17.9453 16.1016 17.9609 16.0078C17.9922 15.8984 18.0234 15.7188 18.0547 15.4688C18.0859 15.2344 18.125 14.9922 18.1719 14.7422C18.2344 14.4922 18.2812 14.2422 18.3125 13.9922C18.0781 14.3516 17.8594 14.7344 17.6562 15.1406C17.4531 15.5312 17.2109 15.8594 16.9297 16.125C16.8828 16.2656 16.8281 16.3672 16.7656 16.4297C16.7031 16.4766 16.6328 16.5234 16.5547 16.5703C16.4922 16.6016 16.4219 16.6406 16.3438 16.6875C16.2812 16.7344 16.2266 16.8281 16.1797 16.9688C16.1016 17.0469 16.0234 17.1328 15.9453 17.2266C15.8828 17.3047 15.8359 17.4062 15.8047 17.5312C15.7266 17.5625 15.6484 17.625 15.5703 17.7188C15.4297 17.8594 15.3359 17.9375 15.2891 17.9531C15.2422 17.9688 15.2031 17.9922 15.1719 18.0234C15.0156 18.1484 14.875 18.2422 14.75 18.3047C14.6406 18.3672 14.5078 18.4062 14.3516 18.4219C14.1797 18.4531 13.9531 18.4766 13.6719 18.4922C13.4062 18.5078 13.1953 18.5234 13.0391 18.5391C12.9297 18.4609 12.8516 18.4141 12.8047 18.3984C12.7578 18.3828 12.6719 18.3516 12.5469 18.3047C12.3438 18.2266 12.2344 18.1797 12.2188 18.1641C12.2031 18.1641 12.1641 18.1484 12.1016 18.1172C11.9766 18.0234 11.8906 17.9531 11.8438 17.9062C11.7969 17.8438 11.7422 17.7812 11.6797 17.7188C11.4141 17.3125 11.2656 16.7969 11.2344 16.1719C11.2188 15.9531 11.2578 15.7344 11.3516 15.5156C11.4453 15.2969 11.5312 15.1016 11.6094 14.9297C11.6875 14.7578 11.7891 14.5781 11.9141 14.3906C12.0391 14.2031 12.1406 14.0312 12.2188 13.875C12.2656 13.7812 12.2891 13.7109 12.2891 13.6641C12.2891 13.6016 12.2812 13.5469 12.2656 13.5C12.25 13.4531 12.2422 13.4062 12.2422 13.3594C12.2422 13.3125 12.2656 13.2422 12.3125 13.1484C12.3438 13.0391 12.3906 12.9297 12.4531 12.8203C12.5156 12.7109 12.5859 12.5859 12.6641 12.4453C12.8203 12.1797 12.9688 11.9609 13.1094 11.7891C13.25 11.6016 13.3672 11.3672 13.4609 11.0859C13.5391 10.8672 13.6406 10.7031 13.7656 10.5938C13.9062 10.4688 14.0703 10.3594 14.2578 10.2656C14.3359 10.2969 14.4453 10.2891 14.5859 10.2422C14.7422 10.1797 14.8594 10.1172 14.9375 10.0547C15.0469 10.0547 15.1328 10.0234 15.1953 9.96094C15.3672 9.92969 15.4531 9.92969 15.4531 9.96094C15.4688 9.99219 15.4922 10.0078 15.5234 10.0078C15.5547 10.0234 15.5938 10.0234 15.6406 10.0078C15.7031 9.99219 15.75 9.99219 15.7812 10.0078C15.8281 10.1641 15.8672 10.2656 15.8984 10.3125C15.9297 10.3594 15.9453 10.3984 15.9453 10.4297C15.9453 10.4766 15.9375 10.5391 15.9219 10.6172C15.9219 10.6953 15.9141 10.75 15.8984 10.7812C15.8047 10.9062 15.75 10.9844 15.7344 11.0156C15.7344 11.0312 15.7266 11.0547 15.7109 11.0859C15.6172 11.2109 15.5 11.3828 15.3594 11.6016C15.2188 11.8047 15.0938 11.9844 14.9844 12.1406C14.9062 12.2656 14.8281 12.3516 14.75 12.3984C14.6719 12.4453 14.6016 12.5312 14.5391 12.6562C14.5078 12.7188 14.4844 12.7812 14.4688 12.8438C14.4531 12.8906 14.4297 12.9453 14.3984 13.0078C14.2266 13.3672 14.0234 13.75 13.7891 14.1562C13.5547 14.5469 13.3438 14.9219 13.1562 15.2812C13.1406 15.4062 13.1094 15.5312 13.0625 15.6562C13.0312 15.7656 13.0156 15.875 13.0156 15.9844C13.0156 16 13.0078 16.0469 12.9922 16.125C12.9922 16.1875 12.9922 16.2656 12.9922 16.3594C12.9922 16.4375 12.9922 16.5156 12.9922 16.5938C12.9922 16.6719 13 16.7188 13.0156 16.7344C13.1094 16.8594 13.1641 16.9219 13.1797 16.9219C13.1953 16.9062 13.2109 16.9062 13.2266 16.9219C13.2891 17.0781 13.3281 17.1719 13.3438 17.2031C13.375 17.2188 13.4297 17.2422 13.5078 17.2734C13.5703 17.2891 13.6562 17.2812 13.7656 17.25C13.8906 17.2031 13.9844 17.1641 14.0469 17.1328C14.2344 17.0391 14.375 16.9453 14.4688 16.8516C14.5625 16.7422 14.6562 16.6328 14.75 16.5234C14.8281 16.4297 14.9375 16.2891 15.0781 16.1016C15.2188 15.9141 15.3594 15.7266 15.5 15.5391C15.6406 15.3359 15.7812 15.1484 15.9219 14.9766C16.0625 14.7891 16.1719 14.6484 16.25 14.5547C16.3438 14.3516 16.4531 14.1641 16.5781 13.9922C16.7188 13.8203 16.8359 13.6406 16.9297 13.4531C17.0547 13.2031 17.1641 12.9922 17.2578 12.8203C17.3516 12.6484 17.4609 12.4453 17.5859 12.2109C17.6797 12.0859 17.7734 11.9688 17.8672 11.8594C17.9766 11.7344 18.0547 11.5703 18.1016 11.3672C18.1328 11.2578 18.1875 11.1562 18.2656 11.0625C18.3594 10.9531 18.4297 10.8594 18.4766 10.7812C18.5859 10.6875 18.6562 10.6016 18.6875 10.5234C18.7344 10.4453 18.7891 10.3906 18.8516 10.3594C19.0234 10.3125 19.1562 10.2812 19.25 10.2656C19.3438 10.2344 19.4609 10.2344 19.6016 10.2656C19.7266 10.1875 19.8594 10.1484 20 10.1484C20.1406 10.1484 20.2734 10.1562 20.3984 10.1719C20.3984 10.25 20.4141 10.3047 20.4453 10.3359C20.4922 10.3516 20.5156 10.3906 20.5156 10.4531C20.5781 10.5938 20.5781 10.7656 20.5156 10.9688C20.4531 11.1719 20.4141 11.375 20.3984 11.5781C20.3672 11.7344 20.3047 11.8828 20.2109 12.0234C20.1328 12.1484 20.0703 12.2969 20.0234 12.4688C19.9609 12.7031 19.9219 12.8438 19.9062 12.8906C19.8906 12.9375 19.8672 13.0234 19.8359 13.1484C19.7734 13.4297 19.7109 13.6953 19.6484 13.9453C19.5859 14.1797 19.5391 14.4531 19.5078 14.7656C19.5078 14.8438 19.4922 14.9297 19.4609 15.0234C19.4453 15.1016 19.4375 15.1719 19.4375 15.2344C19.4375 15.3125 19.4375 15.4062 19.4375 15.5156C19.4531 15.625 19.5 15.6953 19.5781 15.7266C19.6719 15.7578 19.7422 15.75 19.7891 15.7031C19.8516 15.6562 19.9375 15.6016 20.0469 15.5391C20.125 15.4766 20.2031 15.4062 20.2812 15.3281C20.3594 15.25 20.4375 15.1797 20.5156 15.1172C20.5938 15.0391 20.6797 14.9766 20.7734 14.9297C20.8672 14.8828 20.9531 14.8203 21.0312 14.7422C21.2812 14.5234 21.5156 14.2969 21.7344 14.0625C21.9688 13.8281 22.2188 13.6328 22.4844 13.4766C22.7344 13.2109 22.9844 12.9688 23.2344 12.75C23.5 12.5156 23.7969 12.3203 24.125 12.1641C24.25 12.3672 24.2812 12.5391 24.2188 12.6797C24.1562 12.8047 24.0781 12.9297 23.9844 13.0547C23.9531 13.0859 23.8984 13.125 23.8203 13.1719C23.7422 13.2188 23.6797 13.2578 23.6328 13.2891C23.6016 13.3203 23.5625 13.3594 23.5156 13.4062C23.4688 13.4531 23.4297 13.4766 23.3984 13.4766C23.3984 13.5391 23.375 13.5938 23.3281 13.6406C23.2969 13.6719 23.2656 13.7031 23.2344 13.7344C23.0312 14.0469 22.8047 14.3281 22.5547 14.5781C22.3047 14.8125 22.0625 15.0547 21.8281 15.3047C21.7188 15.3359 21.6484 15.3906 21.6172 15.4688C21.6016 15.5312 21.5547 15.5938 21.4766 15.6562C21.4141 15.7344 21.3516 15.8047 21.2891 15.8672C21.2266 15.9141 21.1641 15.9766 21.1016 16.0547C21.0078 16.1641 20.9219 16.2734 20.8438 16.3828C20.7812 16.4766 20.6875 16.5703 20.5625 16.6641C20.4844 16.7422 20.4219 16.8281 20.375 16.9219C20.3438 17 20.2891 17.0781 20.2109 17.1562C20.0859 17.2812 19.9922 17.3438 19.9297 17.3438C19.8828 17.3281 19.8438 17.3984 19.8125 17.5547C19.6875 17.6484 19.6172 17.7188 19.6016 17.7656C19.5859 17.7969 19.5625 17.8047 19.5312 17.7891C19.5 17.8047 19.4453 17.8203 19.3672 17.8359C19.2891 17.8359 19.25 17.8516 19.25 17.8828C19.1406 17.9297 19.0547 17.9766 18.9922 18.0234C18.9453 18.0703 18.875 18.1016 18.7812 18.1172C18.5781 18.1484 18.4297 18.1328 18.3359 18.0703C18.2578 18.0234 18.1719 17.9453 18.0781 17.8359L17.9375 17.3203ZM29.9375 11.6719C29.9531 11.7188 29.9375 11.8125 29.8906 11.9531C29.8125 12.0469 29.7656 12.1484 29.75 12.2578C29.7188 12.3203 29.6875 12.375 29.6562 12.4219C29.6406 12.4688 29.625 12.5312 29.6094 12.6094C29.5781 12.7031 29.5625 12.8125 29.5625 12.9375C29.5781 13.0625 29.5781 13.1797 29.5625 13.2891C29.5312 13.4609 29.5078 13.6328 29.4922 13.8047C29.4766 13.9609 29.4609 14.125 29.4453 14.2969C29.4453 14.4688 29.4297 14.6641 29.3984 14.8828C29.3672 15.1016 29.3359 15.2969 29.3047 15.4688C29.3672 15.5781 29.4062 15.6953 29.4219 15.8203C29.4375 15.9453 29.4922 16.0469 29.5859 16.125C29.8984 16.0781 30.1484 16.0078 30.3359 15.9141C30.5234 15.8047 30.7031 15.6562 30.875 15.4688C31.0156 15.4062 31.1094 15.3516 31.1562 15.3047C31.2188 15.2578 31.3125 15.1953 31.4375 15.1172C31.4688 15.0859 31.5 15.0547 31.5312 15.0234C31.5625 14.9922 31.5938 14.9609 31.625 14.9297C31.7969 14.8359 31.8984 14.7734 31.9297 14.7422C31.9766 14.7109 32.0312 14.6797 32.0938 14.6484C32.3594 14.4766 32.5625 14.2969 32.7031 14.1094C32.8438 14 32.9375 13.9062 32.9844 13.8281C33.0469 13.7344 33.1719 13.6484 33.3594 13.5703C33.4688 13.4453 33.5781 13.3438 33.6875 13.2656C33.8125 13.1719 33.9297 13.0625 34.0391 12.9375C34.1172 12.9375 34.1797 12.9531 34.2266 12.9844C34.2734 13.0156 34.3281 13.0469 34.3906 13.0781C34.4375 13.2031 34.4453 13.3359 34.4141 13.4766C34.3828 13.6016 34.3281 13.7188 34.25 13.8281C34.1719 13.9375 34.1328 14 34.1328 14.0156C34.1328 14.0312 34.125 14.0469 34.1094 14.0625C34.0625 14.125 34 14.1875 33.9219 14.25C33.8594 14.2969 33.8047 14.3516 33.7578 14.4141C33.6797 14.5547 33.6172 14.625 33.5703 14.625C33.5234 14.625 33.4844 14.6406 33.4531 14.6719C33.3125 14.75 33.2109 14.8125 33.1484 14.8594C33.1016 14.9062 33.0156 14.9688 32.8906 15.0469C32.7188 15.1406 32.6172 15.2031 32.5859 15.2344C32.5547 15.2656 32.5234 15.2891 32.4922 15.3047C32.2891 15.5234 32.1016 15.7031 31.9297 15.8438C31.7734 15.9688 31.6016 16.1406 31.4141 16.3594C31.3516 16.4062 31.2891 16.4531 31.2266 16.5C31.1641 16.5469 31.1094 16.6094 31.0625 16.6875C30.9219 16.7812 30.8047 16.875 30.7109 16.9688C30.6328 17.0625 30.5391 17.1719 30.4297 17.2969C30.3359 17.3438 30.2344 17.4141 30.125 17.5078C30.0156 17.5859 29.8984 17.6562 29.7734 17.7188C29.7109 17.75 29.6406 17.7891 29.5625 17.8359C29.5 17.8672 29.4297 17.8828 29.3516 17.8828C29.1641 17.9141 28.9922 17.8984 28.8359 17.8359C28.6797 17.7734 28.5312 17.7266 28.3906 17.6953C28.3281 17.6016 28.25 17.5234 28.1562 17.4609C28.0156 17.2891 27.9141 17.0859 27.8516 16.8516C27.7891 16.6172 27.7266 16.3672 27.6641 16.1016C27.5391 16.1797 27.4219 16.2812 27.3125 16.4062C27.2031 16.5312 27.0625 16.6328 26.8906 16.7109C26.5781 17.0078 26.2422 17.2969 25.8828 17.5781C25.5391 17.8438 25.1875 18.125 24.8281 18.4219C24.7812 18.4688 24.7344 18.5078 24.6875 18.5391C24.6406 18.5703 24.6016 18.5781 24.5703 18.5625C24.4922 18.6562 24.3828 18.7109 24.2422 18.7266C24.1172 18.7578 23.9766 18.7578 23.8203 18.7266C23.6641 18.6484 23.5234 18.5938 23.3984 18.5625C23.2734 18.5312 23.1484 18.4844 23.0234 18.4219C22.7578 18.375 22.5391 18.2578 22.3672 18.0703C22.1797 17.8828 22.0234 17.6641 21.8984 17.4141C21.8516 17.2891 21.8203 17.1719 21.8047 17.0625C21.7734 16.9531 21.7422 16.8281 21.7109 16.6875C21.6953 16.5625 21.6719 16.4609 21.6406 16.3828C21.6094 16.2891 21.6094 16.2031 21.6406 16.125C21.6094 16.0781 21.6016 16.0312 21.6172 15.9844C21.6328 15.9219 21.6406 15.8594 21.6406 15.7969C21.625 15.5781 21.6484 15.3438 21.7109 15.0938C21.7578 14.8438 21.8281 14.6172 21.9219 14.4141C21.9531 14.3516 22.0156 14.2734 22.1094 14.1797C22.1406 14.1328 22.1641 14.0859 22.1797 14.0391C22.1953 13.9922 22.2188 13.9531 22.25 13.9219C22.2812 13.875 22.3281 13.8281 22.3906 13.7812C22.4531 13.7344 22.5078 13.6875 22.5547 13.6406C22.6328 13.5312 22.7188 13.4375 22.8125 13.3594C22.9219 13.2656 23.0234 13.1719 23.1172 13.0781C23.1641 13.0312 23.2031 12.9766 23.2344 12.9141C23.2812 12.8516 23.3438 12.8047 23.4219 12.7734C23.4844 12.6641 23.5547 12.5781 23.6328 12.5156C23.7109 12.4375 23.7969 12.3594 23.8906 12.2812C24.1562 11.9531 24.4844 11.6797 24.875 11.4609C25.2656 11.2422 25.6172 10.9922 25.9297 10.7109C26.0391 10.6641 26.1328 10.6094 26.2109 10.5469C26.2891 10.4844 26.3672 10.4219 26.4453 10.3594C26.6484 10.1875 26.8594 10.1328 27.0781 10.1953C27.2969 10.2578 27.5 10.3125 27.6875 10.3594C27.8438 10.5 27.9922 10.6406 28.1328 10.7812C28.2891 10.9219 28.4219 11.0781 28.5312 11.25C28.6406 11.2344 28.7656 11.2344 28.9062 11.25C29.0469 11.25 29.1953 11.2344 29.3516 11.2031C29.3984 11.2031 29.4453 11.1953 29.4922 11.1797C29.5391 11.1484 29.5781 11.1328 29.6094 11.1328C29.8438 11.2109 29.9609 11.3281 29.9609 11.4844L29.9375 11.6719ZM26.8672 11.8359C26.4453 12.0391 26.0625 12.2812 25.7188 12.5625C25.375 12.8281 25.0469 13.1172 24.7344 13.4297C24.6562 13.5078 24.5703 13.5859 24.4766 13.6641C24.3984 13.7266 24.3281 13.7969 24.2656 13.875C24.2031 13.9531 24.1406 14.0469 24.0781 14.1562C24.0312 14.2656 23.9844 14.3672 23.9375 14.4609C23.9062 14.5234 23.875 14.5781 23.8438 14.625C23.8125 14.6562 23.7812 14.6953 23.75 14.7422C23.7188 14.8203 23.7031 14.8984 23.7031 14.9766C23.7188 15.0547 23.7266 15.1406 23.7266 15.2344C23.7266 15.3125 23.7266 15.3906 23.7266 15.4688C23.7266 15.5469 23.7344 15.625 23.75 15.7031C23.7969 15.875 23.8203 16.0469 23.8203 16.2188C23.8203 16.3438 23.8281 16.5 23.8438 16.6875C23.875 16.8594 23.9375 16.9766 24.0312 17.0391C24.125 17.1016 24.2188 17.1172 24.3125 17.0859C24.4219 17.0547 24.5156 17.0312 24.5938 17.0156C25.1406 16.5938 25.6562 16.1562 26.1406 15.7031C26.625 15.2344 27.0547 14.7109 27.4297 14.1328C27.3984 13.7266 27.3906 13.3359 27.4062 12.9609C27.4375 12.5703 27.4062 12.2109 27.3125 11.8828C27.25 11.8516 27.1719 11.8438 27.0781 11.8594C27 11.8594 26.9297 11.8516 26.8672 11.8359ZM35.2344 12.3281C35.3438 12.2812 35.4609 12.2188 35.5859 12.1406C35.7109 12.0469 35.8203 11.9609 35.9141 11.8828C36.1016 11.7422 36.2734 11.6016 36.4297 11.4609C36.5859 11.3203 36.7578 11.1797 36.9453 11.0391C37.0547 10.9609 37.1484 10.8906 37.2266 10.8281C37.3203 10.75 37.4062 10.6797 37.4844 10.6172C37.5625 10.5703 37.6328 10.5234 37.6953 10.4766C37.7734 10.4297 37.8516 10.3828 37.9297 10.3359C38.1484 10.2422 38.3359 10.1641 38.4922 10.1016C38.5391 10.0859 38.5859 10.0625 38.6328 10.0312C38.6953 9.98438 38.7578 9.96094 38.8203 9.96094C38.9453 9.94531 39.0547 9.97656 39.1484 10.0547C39.2422 10.1172 39.3281 10.1641 39.4062 10.1953C39.5469 10.2734 39.6797 10.3438 39.8047 10.4062C39.9453 10.4688 40.0703 10.5547 40.1797 10.6641C40.2578 10.8047 40.3438 10.9375 40.4375 11.0625C40.5469 11.1875 40.6328 11.3438 40.6953 11.5312C40.7109 11.5781 40.7188 11.6406 40.7188 11.7188C40.7188 11.7969 40.7188 11.875 40.7188 11.9531C40.7344 12.0625 40.7578 12.1719 40.7891 12.2812C40.8359 12.3906 40.8672 12.5 40.8828 12.6094C40.9141 12.7188 40.9219 12.8359 40.9062 12.9609C40.9062 13.0703 40.8672 13.1797 40.7891 13.2891C40.3359 13.5547 39.8594 13.7812 39.3594 13.9688C39.2344 14.0625 39.1016 14.1484 38.9609 14.2266C38.8359 14.2891 38.7109 14.3594 38.5859 14.4375C38.4609 14.6094 38.3047 14.75 38.1172 14.8594C37.9453 14.9688 37.7969 15.0938 37.6719 15.2344C37.7344 15.4375 37.8125 15.6094 37.9062 15.75C38 15.8906 38.1094 16.0234 38.2344 16.1484C38.2812 16.2266 38.3359 16.2969 38.3984 16.3594C38.4766 16.4062 38.5547 16.4453 38.6328 16.4766C38.7109 16.5078 38.8359 16.5391 39.0078 16.5703C39.1797 16.5859 39.3047 16.5859 39.3828 16.5703C39.4766 16.5391 39.5859 16.5078 39.7109 16.4766C39.8359 16.4297 39.9531 16.3828 40.0625 16.3359C40.2812 16.3203 40.4375 16.25 40.5312 16.125C40.6406 15.9844 40.7578 15.8672 40.8828 15.7734C40.9609 15.7109 41.0391 15.6641 41.1172 15.6328C41.1953 15.5859 41.2734 15.5156 41.3516 15.4219C41.3984 15.2969 41.4688 15.1953 41.5625 15.1172C41.7656 14.9141 41.9531 14.7734 42.125 14.6953C42.2344 14.5391 42.375 14.4453 42.5469 14.4141C42.7188 14.3828 42.8672 14.3203 42.9922 14.2266L43.3203 13.9922C43.4297 13.9141 43.5312 13.8359 43.625 13.7578C43.7188 13.6797 43.8203 13.6016 43.9297 13.5234C44.0234 13.4609 44.1094 13.4141 44.1875 13.3828C44.2812 13.3359 44.3516 13.2734 44.3984 13.1953C44.4609 13.1641 44.5156 13.1406 44.5625 13.125C44.6094 13.1094 44.6562 13.0938 44.7031 13.0781C44.7812 13.1875 44.8281 13.2656 44.8438 13.3125C44.875 13.3438 44.8906 13.3828 44.8906 13.4297C44.875 13.5078 44.8438 13.5625 44.7969 13.5938C44.75 13.6094 44.7188 13.6562 44.7031 13.7344C44.5312 13.8438 44.3516 13.9609 44.1641 14.0859C43.9922 14.1953 43.8281 14.3203 43.6719 14.4609C43.6562 14.5391 43.6328 14.6016 43.6016 14.6484C43.5859 14.6797 43.5625 14.7266 43.5312 14.7891C43.3125 14.9453 43.1094 15.1172 42.9219 15.3047C42.7344 15.4922 42.5312 15.6719 42.3125 15.8438C42.2344 15.8906 42.1562 15.9453 42.0781 16.0078C42.0156 16.0703 41.9375 16.125 41.8438 16.1719C41.6094 16.3906 41.375 16.6094 41.1406 16.8281C40.9062 17.0312 40.6562 17.2188 40.3906 17.3906C40.3125 17.4375 40.2344 17.4922 40.1562 17.5547C40.0781 17.6016 39.9844 17.6406 39.875 17.6719C39.7812 17.75 39.6797 17.7969 39.5703 17.8125C39.4766 17.8281 39.3828 17.8594 39.2891 17.9062C39.1016 17.9844 38.9375 18.0625 38.7969 18.1406C38.6719 18.2344 38.5156 18.2969 38.3281 18.3281C38.2344 18.3594 38.1406 18.3594 38.0469 18.3281C37.9688 18.2969 37.8672 18.2891 37.7422 18.3047C37.6328 18.2422 37.5234 18.2031 37.4141 18.1875C37.3984 18.1406 37.3359 18.0469 37.2266 17.9062C37.1328 17.75 37.0703 17.6562 37.0391 17.625C36.9766 17.4219 36.9141 17.2812 36.8516 17.2031C36.7891 17.1094 36.7266 17.0156 36.6641 16.9219C36.5859 16.7969 36.5312 16.6641 36.5 16.5234C36.4844 16.3672 36.4375 16.2266 36.3594 16.1016C36.375 16.0234 36.3594 15.9688 36.3125 15.9375C36.2812 15.8906 36.2734 15.8359 36.2891 15.7734C36.1016 15.6328 35.9844 15.5391 35.9375 15.4922C35.9062 15.4297 35.875 15.3672 35.8438 15.3047C35.8438 15.1328 35.8438 15.0312 35.8438 15C35.8438 14.9688 35.8594 14.9375 35.8906 14.9062C35.9844 14.8125 36.0859 14.7344 36.1953 14.6719C36.3203 14.5938 36.4219 14.5078 36.5 14.4141C36.5781 14.3984 36.6406 14.3672 36.6875 14.3203C36.75 14.2734 36.8125 14.2266 36.875 14.1797C37.0625 14.0547 37.2422 13.9375 37.4141 13.8281C37.5859 13.7031 37.7812 13.5781 38 13.4531C38.1562 13.375 38.25 13.2422 38.2812 13.0547C38.3281 12.8672 38.3672 12.6875 38.3984 12.5156C38.3047 12.3594 38.2344 12.2812 38.1875 12.2812C38.1562 12.2812 38.125 12.2656 38.0938 12.2344C38.0469 12.2031 38.0078 12.1641 37.9766 12.1172C37.9453 12.0547 37.8984 12.0234 37.8359 12.0234C37.7891 12.0391 37.7266 12.0703 37.6484 12.1172C37.5703 12.1641 37.5078 12.2031 37.4609 12.2344C37.1953 12.3906 36.9297 12.5312 36.6641 12.6562C36.3984 12.7656 36.1406 12.8984 35.8906 13.0547C35.7656 13.1172 35.6328 13.1797 35.4922 13.2422C35.3672 13.3047 35.2656 13.3594 35.1875 13.4062C35.1562 13.4219 35.1172 13.4531 35.0703 13.5C35.0391 13.5312 35.0078 13.5625 34.9766 13.5938C34.8516 13.8594 34.75 14.0547 34.6719 14.1797C34.6094 14.2891 34.5469 14.4141 34.4844 14.5547C34.4688 14.6016 34.4453 14.6484 34.4141 14.6953C34.3984 14.7266 34.375 14.7578 34.3438 14.7891C34.2656 14.9141 34.2031 15.0391 34.1562 15.1641C34.1094 15.2891 34.0391 15.4062 33.9453 15.5156C33.9141 15.7031 33.8516 15.9062 33.7578 16.125C33.6797 16.3281 33.6094 16.5312 33.5469 16.7344C33.5 16.9219 33.4375 17.0938 33.3594 17.25C33.2969 17.4062 33.1719 17.5078 32.9844 17.5547C32.9062 17.6797 32.8594 17.7734 32.8438 17.8359C32.8438 17.8984 32.8047 17.9922 32.7266 18.1172C32.6641 18.1484 32.6016 18.1641 32.5391 18.1641C32.4922 18.1797 32.4297 18.2109 32.3516 18.2578C32.3359 18.2578 32.2969 18.2812 32.2344 18.3281C32.1719 18.375 32.1094 18.4219 32.0469 18.4688C31.9688 18.5156 31.8984 18.5625 31.8359 18.6094C31.7734 18.6562 31.7344 18.6797 31.7188 18.6797C31.5938 18.7109 31.5156 18.7031 31.4844 18.6562C31.4375 18.625 31.3828 18.625 31.3203 18.6562C31.2266 18.4688 31.1484 18.3516 31.0859 18.3047C31.1172 18.1797 31.1484 18.0703 31.1797 17.9766C31.1953 17.8672 31.2344 17.7734 31.2969 17.6953C31.3438 17.6328 31.3984 17.5625 31.4609 17.4844C31.5234 17.3906 31.5781 17.3047 31.625 17.2266C31.6562 17.1641 31.6719 17.1094 31.6719 17.0625C31.6562 17 31.6641 16.9375 31.6953 16.875C31.7266 16.7969 31.7734 16.7188 31.8359 16.6406C31.8828 16.5469 31.9297 16.4609 31.9766 16.3828C32.0391 16.2266 32.1094 16.0781 32.1875 15.9375C32.25 15.7969 32.3125 15.6406 32.375 15.4688C32.4219 15.2969 32.4609 15.1328 32.4922 14.9766C32.5234 14.8047 32.5781 14.6328 32.6562 14.4609C32.7344 14.2891 32.8125 14.1094 32.8906 13.9219C32.9688 13.7188 33.0234 13.5312 33.0547 13.3594C33.0703 13.2812 33.0938 13.2188 33.125 13.1719C33.1562 13.125 33.1875 13.0625 33.2188 12.9844C33.25 12.9062 33.2812 12.8203 33.3125 12.7266C33.3594 12.6172 33.4062 12.5156 33.4531 12.4219C33.5312 12.3281 33.5703 12.2578 33.5703 12.2109C33.5859 12.1641 33.6094 12.125 33.6406 12.0938C33.6719 12.0469 33.6875 12.0078 33.6875 11.9766C33.7031 11.9297 33.7266 11.8906 33.7578 11.8594C33.7891 11.7812 33.8281 11.7031 33.875 11.625C33.9219 11.5469 33.9609 11.4688 33.9922 11.3906C34.0391 11.3281 34.0781 11.2266 34.1094 11.0859C34.1406 11.0547 34.1641 11.0156 34.1797 10.9688C34.2109 10.9219 34.2266 10.8828 34.2266 10.8516C34.2734 10.6797 34.3047 10.5156 34.3203 10.3594C34.3516 10.2031 34.4141 10.0391 34.5078 9.86719C34.5703 9.64844 34.6094 9.49219 34.625 9.39844C34.6562 9.28906 34.7266 9.15625 34.8359 9C34.8828 8.875 34.9375 8.75 35 8.625C35.0625 8.48438 35.1172 8.35156 35.1641 8.22656C35.2109 8.10156 35.2578 7.98438 35.3047 7.875C35.3516 7.75 35.3906 7.61719 35.4219 7.47656C35.5312 7.25781 35.6172 7.08594 35.6797 6.96094C35.7422 6.82031 35.8125 6.67969 35.8906 6.53906C36.0156 6.28906 36.1016 6.10156 36.1484 5.97656C36.2109 5.83594 36.2812 5.71094 36.3594 5.60156C36.4062 5.47656 36.4375 5.36719 36.4531 5.27344C36.4844 5.16406 36.5234 5.0625 36.5703 4.96875C36.7109 4.78125 36.7969 4.63281 36.8281 4.52344C36.8594 4.41406 36.8984 4.3125 36.9453 4.21875C37.1016 3.85937 37.2812 3.49219 37.4844 3.11719C37.6875 2.74219 37.9297 2.41406 38.2109 2.13281C38.2891 2.05469 38.3672 1.97656 38.4453 1.89844C38.5391 1.82031 38.6172 1.72656 38.6797 1.61719C38.8047 1.49219 38.9297 1.39063 39.0547 1.3125C39.1797 1.21875 39.2969 1.11719 39.4062 1.00781C39.6094 1.05469 39.7266 1.09375 39.7578 1.125C39.8047 1.14062 39.8438 1.14844 39.875 1.14844C39.9531 1.25781 40.0078 1.41406 40.0391 1.61719C40.0859 1.80469 40.1016 1.98437 40.0859 2.15625C40.0859 2.26562 40.0625 2.375 40.0156 2.48438C39.9688 2.59375 39.9453 2.70313 39.9453 2.8125C39.9297 2.875 39.9219 2.92969 39.9219 2.97656C39.9375 3.02344 39.9219 3.0625 39.875 3.09375C39.8438 3.26563 39.7969 3.42969 39.7344 3.58594C39.6719 3.72656 39.6094 3.86719 39.5469 4.00781C39.3125 4.57031 39.0625 5.04688 38.7969 5.4375C38.5469 5.82812 38.3047 6.26562 38.0703 6.75C37.9609 6.92188 37.8594 7.09375 37.7656 7.26562C37.6875 7.42188 37.6094 7.60938 37.5312 7.82812C37.4375 8.01562 37.3359 8.20312 37.2266 8.39062C37.1172 8.57812 36.9844 8.75 36.8281 8.90625C36.7344 9.07812 36.6484 9.25 36.5703 9.42188C36.5078 9.57812 36.4141 9.73438 36.2891 9.89062C36.2578 10 36.2188 10.1016 36.1719 10.1953C36.125 10.2734 36.0625 10.3594 35.9844 10.4531C35.9219 10.5781 35.8594 10.6875 35.7969 10.7812C35.75 10.875 35.7109 10.9922 35.6797 11.1328C35.6016 11.3359 35.5156 11.5469 35.4219 11.7656C35.3438 11.9688 35.2812 12.1562 35.2344 12.3281ZM47.0703 11.3203C46.9609 11.4609 46.8516 11.5938 46.7422 11.7188C46.6328 11.8438 46.5078 11.9609 46.3672 12.0703C46.2734 12.2422 46.1641 12.3984 46.0391 12.5391C45.9141 12.6797 45.7891 12.8125 45.6641 12.9375C45.6016 13.0625 45.5312 13.1641 45.4531 13.2422C45.375 13.3047 45.2891 13.375 45.1953 13.4531C45.1484 13.5312 45.0859 13.6094 45.0078 13.6875C44.9453 13.7656 44.8828 13.8438 44.8203 13.9219C44.7734 14 44.7344 14.0859 44.7031 14.1797C44.6719 14.2734 44.6797 14.375 44.7266 14.4844C44.8984 14.5156 45.0703 14.4922 45.2422 14.4141C45.4141 14.3359 45.5625 14.2656 45.6875 14.2031C45.8125 14.125 45.9375 14.0625 46.0625 14.0156C46.2031 13.9531 46.3281 13.8828 46.4375 13.8047L47.0469 13.1953C47.1562 13.1016 47.25 13 47.3281 12.8906C47.4062 12.7812 47.4922 12.6641 47.5859 12.5391C47.6172 12.3828 47.6797 12.2266 47.7734 12.0703C47.8672 11.8984 47.9062 11.7344 47.8906 11.5781C47.875 11.4844 47.8438 11.4062 47.7969 11.3438C47.7656 11.2656 47.7422 11.1875 47.7266 11.1094C47.5703 11.1094 47.4453 11.1406 47.3516 11.2031C47.2734 11.25 47.1797 11.2891 47.0703 11.3203ZM43.2969 12.8203C43.3281 12.8047 43.3906 12.7422 43.4844 12.6328C43.5938 12.5078 43.7109 12.375 43.8359 12.2344C43.9609 12.0781 44.0781 11.9453 44.1875 11.8359C44.2969 11.7109 44.375 11.6406 44.4219 11.625C44.4688 11.5469 44.5078 11.4844 44.5391 11.4375C44.5859 11.375 44.6484 11.3203 44.7266 11.2734C44.8516 11.0391 45.0156 10.8516 45.2188 10.7109C45.4219 10.5547 45.6172 10.375 45.8047 10.1719C46.1016 10.0469 46.3984 9.89062 46.6953 9.70312C47.0078 9.5 47.3516 9.39062 47.7266 9.375C47.8984 9.45312 48.0625 9.47656 48.2188 9.44531C48.3906 9.41406 48.5469 9.45312 48.6875 9.5625C48.7656 9.70312 48.8359 9.79688 48.8984 9.84375C48.9609 9.875 49.0078 9.91406 49.0391 9.96094C49.1016 10.1641 49.1484 10.2969 49.1797 10.3594C49.2109 10.4062 49.2344 10.4688 49.25 10.5469C49.2656 10.7812 49.2812 10.9531 49.2969 11.0625C49.3125 11.1562 49.3125 11.25 49.2969 11.3438C49.25 11.7656 49.1719 12.1641 49.0625 12.5391C49.0312 12.6328 49 12.7344 48.9688 12.8438C48.9375 12.9375 48.8984 13.0234 48.8516 13.1016C48.7422 13.2422 48.6562 13.3672 48.5938 13.4766C48.5469 13.5703 48.5 13.6484 48.4531 13.7109C48.2656 13.8984 48.1016 14.0547 47.9609 14.1797C47.8203 14.2578 47.6797 14.3438 47.5391 14.4375C47.3984 14.5312 47.2422 14.5938 47.0703 14.625C46.9922 14.6719 46.9219 14.7188 46.8594 14.7656C46.7969 14.7969 46.7188 14.8203 46.625 14.8359C46.4688 14.9453 46.3125 15.0312 46.1562 15.0938C46 15.1406 45.8359 15.2031 45.6641 15.2812C45.5703 15.3125 45.4688 15.3672 45.3594 15.4453C45.25 15.5234 45.1406 15.5859 45.0312 15.6328C44.9375 15.6641 44.8203 15.6953 44.6797 15.7266C44.5547 15.7422 44.4531 15.7656 44.375 15.7969C44.4531 15.9688 44.4844 16.1641 44.4688 16.3828C44.4531 16.6016 44.4922 16.7969 44.5859 16.9688C44.7891 17.0156 45.0078 17.0547 45.2422 17.0859C45.4922 17.1016 45.7266 17.0938 45.9453 17.0625C46.0234 17.0469 46.1094 17.0234 46.2031 16.9922C46.2969 16.9453 46.3906 16.9141 46.4844 16.8984C46.6562 16.8672 46.8203 16.8281 46.9766 16.7812C47.1484 16.7344 47.2969 16.6719 47.4219 16.5938C47.875 16.4375 48.3125 16.2266 48.7344 15.9609C49.1562 15.6953 49.5234 15.4062 49.8359 15.0938C50.0234 14.9688 50.2266 14.7969 50.4453 14.5781C50.6797 14.3594 50.8594 14.1562 50.9844 13.9688C51.2188 13.7188 51.4219 13.5234 51.5938 13.3828C51.7812 13.2422 51.9531 13.1797 52.1094 13.1953C52.2344 13.1953 52.3516 13.2734 52.4609 13.4297C52.5859 13.5703 52.5781 13.7266 52.4375 13.8984C52.2812 13.9922 52.1172 14.1328 51.9453 14.3203C51.7734 14.5078 51.5938 14.6406 51.4062 14.7188C51.2656 14.8125 51.0859 14.9844 50.8672 15.2344C50.6641 15.4844 50.4922 15.6719 50.3516 15.7969C50.2891 15.8594 50.2031 15.9375 50.0938 16.0312C50 16.1094 49.9219 16.1875 49.8594 16.2656C49.6406 16.4531 49.4062 16.625 49.1562 16.7812C49.0625 16.75 48.9922 16.7656 48.9453 16.8281C48.8984 16.8906 48.8359 16.9531 48.7578 17.0156C48.7109 17.0469 48.6562 17.0781 48.5938 17.1094C48.5469 17.1406 48.5 17.1719 48.4531 17.2031C48.3281 17.3125 48.1875 17.4219 48.0312 17.5312C47.8906 17.6406 47.7422 17.7344 47.5859 17.8125C47.2734 18 46.9609 18.1562 46.6484 18.2812C46.3359 18.4219 46.0312 18.5938 45.7344 18.7969C45.6406 18.8125 45.5547 18.8203 45.4766 18.8203C45.3984 18.8359 45.3203 18.8516 45.2422 18.8672C45.1484 18.8984 45.0625 18.9141 44.9844 18.9141C44.9219 18.9141 44.8281 18.8984 44.7031 18.8672C44.4219 18.7891 44.1875 18.6953 44 18.5859C43.8125 18.4766 43.625 18.3203 43.4375 18.1172C43.3438 18.0234 43.2422 17.9375 43.1328 17.8594C43.0234 17.7812 42.9375 17.6953 42.875 17.6016C42.8281 17.5234 42.7734 17.3984 42.7109 17.2266C42.6484 17.0547 42.5938 16.875 42.5469 16.6875C42.5 16.4844 42.4609 16.2891 42.4297 16.1016C42.3984 15.9141 42.3828 15.7734 42.3828 15.6797C42.4141 15.6172 42.4531 15.5078 42.5 15.3516C42.5312 15.1953 42.5703 15.0312 42.6172 14.8594C42.6484 14.6719 42.6797 14.5 42.7109 14.3438C42.7266 14.1875 42.7344 14.0781 42.7344 14.0156C42.75 14 42.7891 13.9375 42.8516 13.8281C42.9141 13.7031 42.9844 13.5703 43.0625 13.4297C43.125 13.2891 43.1797 13.1641 43.2266 13.0547C43.2734 12.9297 43.2969 12.8516 43.2969 12.8203ZM66.7209 17.064C66.6089 17.064 66.5049 17.048 66.4089 17.016C66.1049 16.952 65.8889 16.768 65.7609 16.464C65.6649 16.192 65.6889 15.888 65.8329 15.552C65.9929 15.216 66.2009 14.84 66.4569 14.424C66.5529 14.28 66.6409 14.136 66.7209 13.992C66.8169 13.832 66.8969 13.688 66.9609 13.56C66.9929 13.512 67.0169 13.472 67.0329 13.44C67.0489 13.392 67.0649 13.352 67.0809 13.32C66.6009 13.24 66.0409 13.224 65.4009 13.272C64.7769 13.304 64.0729 13.424 63.2889 13.632C62.6009 13.808 61.8569 14.04 61.0569 14.328C60.2729 14.6 59.4409 14.928 58.5609 15.312C58.3849 15.376 58.2089 15.376 58.0329 15.312C57.8569 15.248 57.7289 15.128 57.6489 14.952C57.5529 14.776 57.5449 14.592 57.6249 14.4C57.7049 14.192 57.8329 14.056 58.0089 13.992C58.9049 13.592 59.7609 13.248 60.5769 12.96C61.4089 12.656 62.1929 12.416 62.9289 12.24C64.8969 11.744 66.5049 11.664 67.7529 12C68.1209 12.096 68.3769 12.32 68.5209 12.672C68.6649 13.024 68.6329 13.416 68.4249 13.848C68.2169 14.28 67.9689 14.728 67.6809 15.192C67.6649 15.224 67.6409 15.264 67.6089 15.312C67.5769 15.36 67.5449 15.416 67.5129 15.48C67.8809 15.4 68.4249 15.24 69.1449 15C69.8649 14.76 70.8569 14.408 72.1209 13.944C72.2969 13.88 72.4729 13.896 72.6489 13.992C72.8409 14.072 72.9689 14.208 73.0329 14.4C73.1129 14.576 73.1129 14.76 73.0329 14.952C72.9529 15.128 72.8089 15.256 72.6009 15.336C71.8649 15.592 71.1929 15.824 70.5849 16.032C69.9769 16.24 69.4329 16.416 68.9529 16.56C68.3129 16.752 67.8249 16.888 67.4889 16.968C67.1529 17.032 66.8969 17.064 66.7209 17.064ZM75.6217 16.584C75.5417 16.584 75.4777 16.576 75.4297 16.56C75.1737 16.496 74.9897 16.4 74.8777 16.272C74.7817 16.128 74.7177 16.016 74.6857 15.936C74.5737 15.584 74.6137 15.224 74.8057 14.856C74.9977 14.472 75.2457 14.072 75.5497 13.656C75.6457 13.528 75.7337 13.392 75.8137 13.248C75.9097 13.088 75.9897 12.952 76.0537 12.84C76.0697 12.824 76.0937 12.792 76.1257 12.744C76.0297 12.776 75.9097 12.824 75.7657 12.888C75.6377 12.952 75.4857 13.048 75.3097 13.176C75.0217 13.352 74.7177 13.584 74.3977 13.872C74.0777 14.144 73.7497 14.432 73.4137 14.736C73.3337 14.8 73.2457 14.872 73.1497 14.952C73.0697 15.032 72.9897 15.112 72.9097 15.192C72.7657 15.32 72.5977 15.384 72.4057 15.384C72.1977 15.368 72.0297 15.28 71.9017 15.12C71.7577 14.976 71.6937 14.808 71.7097 14.616C71.7257 14.408 71.8057 14.24 71.9497 14.112C72.0297 14.032 72.1177 13.952 72.2137 13.872C72.2937 13.792 72.3737 13.72 72.4537 13.656C72.9657 13.192 73.4697 12.768 73.9657 12.384C74.4617 11.984 74.9497 11.68 75.4297 11.472C75.9097 11.264 76.3737 11.224 76.8217 11.352C77.0937 11.416 77.2857 11.528 77.3977 11.688C77.5257 11.832 77.5977 11.96 77.6137 12.072C77.7577 12.424 77.7257 12.8 77.5177 13.2C77.3097 13.584 77.0457 14.008 76.7257 14.472C76.6937 14.504 76.6537 14.56 76.6057 14.64C76.5737 14.704 76.5337 14.768 76.4857 14.832C76.7257 14.736 77.0377 14.616 77.4217 14.472C77.8057 14.328 78.2697 14.152 78.8137 13.944C79.0217 13.88 79.2137 13.896 79.3897 13.992C79.5657 14.072 79.6857 14.208 79.7497 14.4C79.8297 14.576 79.8217 14.76 79.7257 14.952C79.6457 15.128 79.5177 15.256 79.3417 15.336C78.8297 15.512 78.3657 15.672 77.9497 15.816C77.5337 15.96 77.1817 16.088 76.8937 16.2C76.7337 16.264 76.5897 16.32 76.4617 16.368C76.3497 16.4 76.2457 16.432 76.1497 16.464C76.0377 16.496 75.9417 16.528 75.8617 16.56C75.7817 16.576 75.7017 16.584 75.6217 16.584ZM84.5111 17.304C84.3191 17.304 84.1591 17.248 84.0311 17.136C83.7751 16.928 83.7031 16.664 83.8151 16.344C83.8151 16.328 83.8711 16.136 83.9831 15.768C84.1111 15.4 84.2551 14.984 84.4151 14.52C84.4951 14.248 84.5671 14.016 84.6311 13.824C84.6951 13.616 84.7511 13.432 84.7991 13.272C84.3671 13.432 83.8391 13.632 83.2151 13.872C82.5911 14.096 81.9351 14.336 81.2471 14.592C80.5751 14.848 79.9191 15.096 79.2791 15.336C79.1031 15.4 78.9271 15.392 78.7511 15.312C78.5591 15.216 78.4231 15.072 78.3431 14.88C78.2791 14.704 78.2951 14.528 78.3911 14.352C78.4711 14.16 78.6071 14.024 78.7991 13.944C79.5191 13.688 80.2631 13.424 81.0311 13.152C81.7991 12.864 82.5111 12.6 83.1671 12.36C83.8231 12.104 84.3591 11.896 84.7751 11.736C85.1911 11.576 85.3991 11.496 85.3991 11.496C85.4791 11.48 85.5591 11.472 85.6391 11.472C85.7191 11.456 85.7911 11.464 85.8551 11.496C86.0791 11.528 86.2391 11.656 86.3351 11.88C86.4151 12.008 86.4471 12.176 86.4311 12.384C86.4311 12.576 86.3911 12.856 86.3111 13.224C86.2631 13.432 86.1991 13.664 86.1191 13.92C86.0551 14.16 85.9671 14.44 85.8551 14.76C85.8391 14.824 85.8231 14.88 85.8071 14.928C85.7911 14.976 85.7751 15.032 85.7591 15.096C86.3991 14.744 87.1831 14.376 88.1111 13.992C88.2871 13.912 88.4631 13.912 88.6391 13.992C88.8311 14.056 88.9591 14.176 89.0231 14.352C89.1191 14.528 89.1271 14.712 89.0471 14.904C88.9671 15.096 88.8391 15.232 88.6631 15.312C87.9431 15.632 87.2951 15.936 86.7191 16.224C86.1591 16.512 85.7111 16.744 85.3751 16.92C85.0391 17.096 84.8711 17.184 84.8711 17.184C84.7751 17.264 84.6551 17.304 84.5111 17.304ZM91.3912 18.72C91.3112 18.72 91.2312 18.712 91.1512 18.696C91.0712 18.696 90.9832 18.688 90.8872 18.672C90.6952 18.608 90.5352 18.472 90.4072 18.264C90.3432 18.136 90.3112 17.96 90.3112 17.736C90.3112 17.512 90.3832 17.144 90.5272 16.632C90.6712 16.12 90.9032 15.36 91.2232 14.352C90.8712 14.48 90.4632 14.632 89.9992 14.808C89.5512 14.984 89.0872 15.16 88.6072 15.336C88.4312 15.4 88.2552 15.392 88.0792 15.312C87.8872 15.216 87.7512 15.072 87.6712 14.88C87.6072 14.704 87.6232 14.528 87.7192 14.352C87.7992 14.16 87.9352 14.024 88.1272 13.944C88.8152 13.688 89.4552 13.448 90.0472 13.224C90.6552 13 91.1512 12.816 91.5352 12.672C91.9192 12.528 92.1112 12.456 92.1112 12.456C92.2712 12.392 92.4232 12.384 92.5672 12.432C92.7752 12.48 92.9272 12.6 93.0232 12.792C93.1032 12.936 93.1272 13.064 93.0952 13.176C93.0792 13.288 93.0552 13.408 93.0232 13.536C92.9912 13.6 92.9672 13.672 92.9512 13.752C92.9352 13.816 92.9112 13.896 92.8792 13.992C92.7672 14.264 92.6472 14.6 92.5192 15C92.4072 15.384 92.2872 15.776 92.1592 16.176C92.0792 16.4 92.0152 16.592 91.9672 16.752C91.9192 16.912 91.8792 17.056 91.8472 17.184C92.1512 17.12 92.5912 16.936 93.1672 16.632C93.6632 16.36 94.1912 16.048 94.7512 15.696C95.3272 15.328 95.9112 14.944 96.5032 14.544C96.6312 14.464 96.7592 14.384 96.8872 14.304C97.0312 14.224 97.1592 14.136 97.2712 14.04C97.4472 13.928 97.6312 13.896 97.8232 13.944C98.0312 13.976 98.1912 14.08 98.3032 14.256C98.4152 14.416 98.4472 14.592 98.3992 14.784C98.3672 14.976 98.2632 15.128 98.0872 15.24C97.9592 15.336 97.8232 15.432 97.6792 15.528C97.5512 15.608 97.4152 15.696 97.2712 15.792C96.6632 16.192 96.0712 16.576 95.4952 16.944C94.9192 17.312 94.3752 17.632 93.8632 17.904C92.8232 18.448 91.9992 18.72 91.3912 18.72ZM99.6388 18.672C99.5268 18.672 99.4148 18.656 99.3027 18.624C99.1908 18.608 99.0788 18.592 98.9668 18.576C98.6788 18.496 98.4788 18.328 98.3668 18.072C98.2228 17.752 98.2228 17.368 98.3668 16.92C98.5268 16.456 98.7828 15.864 99.1348 15.144C99.1988 15.016 99.2628 14.872 99.3268 14.712C99.4068 14.552 99.4788 14.4 99.5428 14.256C99.3348 14.336 99.1108 14.472 98.8708 14.664C98.6468 14.84 98.4148 15.024 98.1748 15.216C98.0148 15.328 97.8388 15.376 97.6467 15.36C97.4387 15.328 97.2707 15.24 97.1427 15.096C97.0307 14.936 96.9907 14.76 97.0227 14.568C97.0387 14.376 97.1187 14.208 97.2627 14.064C97.4867 13.904 97.7188 13.728 97.9588 13.536C98.2148 13.344 98.4708 13.184 98.7268 13.056C99.3828 12.72 99.9828 12.632 100.527 12.792C100.783 12.84 100.975 13 101.103 13.272C101.231 13.528 101.223 13.848 101.079 14.232C100.951 14.616 100.727 15.136 100.407 15.792C100.327 15.984 100.239 16.176 100.143 16.368C100.063 16.56 99.9828 16.744 99.9028 16.92C99.8868 16.984 99.8628 17.04 99.8308 17.088C99.8148 17.136 99.7988 17.184 99.7828 17.232C100.119 17.184 100.607 17.016 101.247 16.728C101.903 16.424 102.783 15.832 103.887 14.952C104.479 14.488 105.015 14.04 105.495 13.608C105.975 13.16 106.359 12.792 106.647 12.504C106.935 12.216 107.079 12.072 107.079 12.072C107.271 11.848 107.503 11.776 107.775 11.856C107.903 11.872 108.007 11.928 108.087 12.024C108.167 12.104 108.231 12.184 108.279 12.264C108.391 12.488 108.399 12.752 108.303 13.056C108.223 13.344 108.047 13.816 107.775 14.472C107.679 14.68 107.583 14.888 107.487 15.096C107.407 15.304 107.327 15.496 107.247 15.672C107.231 15.736 107.215 15.792 107.199 15.84C107.199 15.872 107.191 15.904 107.175 15.936C107.479 15.888 107.799 15.76 108.135 15.552C108.487 15.328 108.823 15.08 109.143 14.808C109.479 14.536 109.759 14.304 109.983 14.112C110.143 13.968 110.319 13.904 110.511 13.92C110.703 13.936 110.871 14.016 111.015 14.16C111.143 14.32 111.199 14.496 111.183 14.688C111.183 14.88 111.103 15.048 110.943 15.192C110.447 15.624 109.935 16.032 109.407 16.416C108.895 16.8 108.375 17.088 107.847 17.28C107.335 17.456 106.815 17.48 106.287 17.352C106.031 17.24 105.847 17.08 105.735 16.872C105.639 16.648 105.607 16.4 105.639 16.128C105.687 15.856 105.783 15.52 105.927 15.12C105.751 15.28 105.567 15.432 105.375 15.576C105.199 15.72 105.007 15.88 104.799 16.056C102.591 17.8 100.871 18.672 99.6388 18.672ZM118.916 17.064C118.804 17.064 118.7 17.048 118.604 17.016C118.3 16.952 118.084 16.768 117.956 16.464C117.86 16.192 117.884 15.888 118.028 15.552C118.188 15.216 118.396 14.84 118.652 14.424C118.748 14.28 118.836 14.136 118.916 13.992C119.012 13.832 119.092 13.688 119.156 13.56C119.188 13.512 119.212 13.472 119.228 13.44C119.244 13.392 119.26 13.352 119.276 13.32C118.796 13.24 118.236 13.224 117.596 13.272C116.972 13.304 116.268 13.424 115.484 13.632C114.796 13.808 114.052 14.04 113.252 14.328C112.468 14.6 111.636 14.928 110.756 15.312C110.58 15.376 110.404 15.376 110.228 15.312C110.052 15.248 109.924 15.128 109.844 14.952C109.748 14.776 109.74 14.592 109.82 14.4C109.9 14.192 110.028 14.056 110.204 13.992C111.1 13.592 111.956 13.248 112.772 12.96C113.604 12.656 114.388 12.416 115.124 12.24C117.092 11.744 118.7 11.664 119.948 12C120.316 12.096 120.572 12.32 120.716 12.672C120.86 13.024 120.828 13.416 120.62 13.848C120.412 14.28 120.164 14.728 119.876 15.192C119.86 15.224 119.836 15.264 119.804 15.312C119.772 15.36 119.74 15.416 119.708 15.48C120.076 15.4 120.62 15.24 121.34 15C122.06 14.76 123.052 14.408 124.316 13.944C124.492 13.88 124.668 13.896 124.844 13.992C125.036 14.072 125.164 14.208 125.228 14.4C125.308 14.576 125.308 14.76 125.228 14.952C125.148 15.128 125.004 15.256 124.796 15.336C124.06 15.592 123.388 15.824 122.78 16.032C122.172 16.24 121.628 16.416 121.148 16.56C120.508 16.752 120.02 16.888 119.684 16.968C119.348 17.032 119.092 17.064 118.916 17.064Z" fill="#ffffff"/>
</svg>
